<?xml version="1.0" standalone="no"?>
<!DOCTYPE svg PUBLIC "-//W3C//DTD SVG 20010904//EN"
 "http://www.w3.org/TR/2001/REC-SVG-20010904/DTD/svg10.dtd">
<svg version="1.0" xmlns="http://www.w3.org/2000/svg"
 width="2560.000000pt" height="2560.000000pt" viewBox="0 0 2560.000000 2560.000000"
 preserveAspectRatio="xMidYMid meet">
<metadata>
Created by potrace 1.14, written by Peter Selinger 2001-2017
</metadata>
<g transform="translate(0.000000,2560.000000) scale(0.100000,-0.100000)"
fill="#000000" stroke="none">
<path d="M5714 25585 c-3 -8 -11 -15 -16 -15 -6 0 -56 -21 -112 -46 -145 -66
-175 -80 -231 -112 -27 -16 -84 -47 -125 -71 -41 -23 -106 -62 -145 -87 -38
-24 -93 -58 -121 -74 -28 -17 -59 -39 -69 -50 -10 -11 -24 -20 -31 -20 -7 0
-29 -13 -47 -30 -19 -16 -38 -30 -41 -30 -4 0 -22 -11 -39 -24 -76 -56 -257
-156 -347 -191 -71 -27 -86 -35 -112 -60 -13 -12 -38 -30 -54 -39 -29 -17 -29
-17 36 -12 64 6 65 6 40 -11 -45 -31 -142 -127 -150 -149 -5 -11 -64 -65 -132
-119 -175 -140 -352 -325 -332 -345 12 -12 54 16 54 36 0 8 6 14 13 14 15 1
97 77 97 91 0 5 11 14 24 19 13 5 27 18 31 29 3 10 12 22 21 25 24 9 233 190
233 203 1 15 142 143 158 143 7 0 13 4 13 9 0 16 217 161 242 161 11 0 66 23
111 46 16 8 35 14 42 14 8 0 29 6 47 14 86 38 169 65 231 75 66 11 276 80 389
127 32 13 60 24 64 24 19 0 -36 -43 -168 -132 -82 -54 -154 -108 -161 -119 -6
-11 -28 -30 -47 -41 -19 -12 -62 -45 -95 -73 -33 -28 -114 -92 -180 -142 -160
-120 -245 -189 -335 -272 -41 -37 -106 -95 -143 -127 -116 -100 -504 -493
-607 -614 -35 -41 -67 -76 -72 -78 -4 -2 -8 -9 -8 -15 0 -7 -21 -34 -45 -62
-25 -27 -70 -81 -100 -120 -168 -219 -180 -228 -297 -244 -304 -41 -378 -46
-443 -32 -27 6 -120 13 -206 16 -141 5 -157 4 -176 -13 -21 -18 -19 -18 125
-33 166 -16 627 -16 807 1 266 24 524 50 536 55 14 5 248 37 404 55 44 5 97
12 118 15 23 3 36 2 33 -4 -16 -25 -398 -125 -596 -156 -58 -9 -172 -27 -255
-40 -290 -46 -370 -50 -935 -49 l-535 1 -85 31 c-79 28 -117 36 -164 33 -17
-1 -16 -3 5 -20 13 -10 29 -20 34 -22 32 -13 125 -72 125 -80 0 -5 10 -9 23
-10 12 0 36 -9 52 -20 17 -10 37 -21 45 -25 8 -3 22 -10 30 -15 8 -5 26 -14
40 -20 14 -6 48 -22 75 -35 28 -13 55 -24 61 -24 6 0 17 -7 24 -15 7 -8 27
-15 44 -15 17 0 56 -13 86 -30 32 -17 71 -29 93 -30 21 0 54 -7 74 -15 19 -8
46 -15 58 -15 13 0 36 -7 51 -15 16 -8 48 -15 72 -15 48 0 97 -21 111 -48 20
-37 -31 -136 -161 -317 -31 -44 -67 -93 -78 -110 -12 -16 -40 -57 -64 -90 -23
-33 -58 -87 -76 -120 -18 -33 -39 -67 -46 -76 -8 -8 -14 -19 -14 -22 0 -4 -17
-33 -37 -64 -48 -74 -70 -113 -139 -248 -31 -60 -62 -117 -69 -125 -7 -8 -26
-42 -42 -75 -17 -33 -46 -90 -65 -127 -28 -55 -33 -71 -23 -84 10 -14 18 -8
61 42 28 33 66 81 85 108 19 26 43 61 54 76 11 16 42 61 70 102 27 40 68 96
90 125 139 181 225 302 239 338 3 9 15 19 26 22 15 4 41 47 89 147 69 141 103
184 123 154 19 -29 -12 -169 -59 -263 -11 -22 -23 -62 -27 -88 -6 -51 -26 -94
-62 -137 -11 -14 -36 -50 -54 -80 -33 -53 -65 -99 -154 -220 -94 -127 -154
-200 -237 -285 -48 -49 -131 -137 -184 -195 -126 -137 -119 -129 -270 -267
-176 -160 -226 -202 -395 -328 -80 -59 -161 -122 -180 -139 -52 -46 -240 -169
-450 -293 -102 -60 -223 -132 -270 -160 -207 -123 -487 -255 -567 -268 -42 -7
-43 -8 -43 -45 l0 -39 38 5 c81 12 563 178 737 254 22 10 96 41 165 70 106 44
198 87 295 137 22 11 146 53 157 53 4 0 5 -7 2 -15 -15 -38 39 0 135 94 74 73
182 141 226 141 9 0 34 14 55 30 45 35 51 36 75 10 17 -18 16 -21 -5 -77 -34
-86 -109 -240 -151 -308 -20 -33 -57 -98 -82 -145 -24 -47 -63 -117 -85 -157
-22 -39 -74 -142 -116 -227 -43 -86 -81 -158 -87 -161 -5 -4 -9 -13 -9 -20 0
-8 -24 -65 -54 -127 -30 -62 -63 -135 -74 -163 -11 -27 -56 -122 -100 -210
-44 -88 -89 -182 -102 -210 -35 -80 -46 -105 -84 -187 -19 -42 -45 -100 -56
-130 -29 -73 -47 -115 -76 -169 -13 -26 -24 -54 -24 -63 0 -8 -7 -32 -16 -53
-9 -21 -22 -51 -29 -68 -7 -16 -20 -48 -29 -70 -10 -22 -21 -48 -26 -57 -6
-10 -10 -25 -10 -34 0 -9 -6 -30 -14 -47 -7 -18 -21 -52 -31 -77 -10 -25 -30
-72 -46 -105 -15 -33 -29 -73 -32 -90 -3 -16 -22 -75 -42 -130 -37 -101 -48
-138 -66 -210 -5 -22 -13 -49 -18 -60 -18 -43 -33 -92 -40 -126 -4 -19 -11
-41 -16 -48 -8 -14 -18 -49 -40 -146 -7 -33 -21 -87 -30 -120 -18 -65 -42
-160 -54 -215 -4 -19 -12 -51 -18 -70 -71 -231 -108 -468 -123 -800 -12 -275
7 -510 65 -770 44 -202 59 -264 85 -351 15 -53 36 -145 45 -205 8 -60 18 -119
21 -131 2 -13 0 -23 -4 -23 -16 0 -62 116 -102 253 -21 73 -43 144 -48 158
-39 102 -122 648 -122 805 0 82 -8 114 -26 114 -21 0 -21 -645 0 -653 8 -3 17
-21 21 -39 4 -18 13 -53 20 -78 7 -25 25 -97 40 -160 58 -239 98 -364 181
-558 8 -18 14 -39 14 -47 0 -13 26 -70 109 -245 17 -36 38 -76 46 -90 7 -14
24 -47 35 -75 12 -27 26 -58 31 -67 5 -10 9 -24 9 -31 0 -13 10 -36 94 -212
18 -38 39 -85 46 -103 20 -51 47 -81 70 -75 19 5 19 6 0 55 -10 28 -28 59 -40
70 -12 12 -19 27 -15 37 3 9 -2 26 -10 37 -8 10 -15 29 -15 40 0 12 -13 55
-30 95 -16 41 -30 77 -30 81 0 4 -11 31 -24 60 -59 128 -125 353 -161 548 -9
47 -23 117 -30 155 -32 160 -40 336 -38 825 1 449 3 493 22 595 12 61 26 142
30 182 5 40 13 78 17 85 5 7 11 33 15 58 9 63 43 200 75 301 7 26 14 59 14 74
0 24 18 90 41 150 4 11 19 56 32 100 14 44 40 118 57 165 18 47 36 101 40 120
13 54 35 118 43 126 4 4 7 14 7 23 0 9 7 30 16 46 9 17 25 57 35 90 11 33 24
71 30 85 6 14 17 39 24 55 14 32 42 96 55 130 24 58 55 128 89 200 21 44 46
100 56 125 9 25 30 75 46 111 16 36 29 71 29 78 0 7 7 26 15 42 8 16 22 43 31
60 13 26 98 119 108 119 1 0 4 -24 5 -52 1 -29 6 -57 11 -62 17 -17 39 3 45
41 3 21 12 56 20 78 7 22 18 69 24 105 21 123 38 195 54 225 34 62 31 61 81
35 41 -23 45 -28 51 -73 9 -62 -2 -283 -21 -409 -8 -54 -14 -133 -14 -175 0
-43 -7 -110 -15 -148 -8 -39 -15 -102 -15 -140 0 -91 -28 -414 -41 -485 -35
-183 -22 -1024 22 -1415 6 -49 12 -137 15 -195 l4 -105 -34 125 c-103 378
-168 842 -181 1275 -5 197 -7 224 -27 389 -11 91 -10 106 10 190 39 166 62
524 34 533 -20 7 -43 -62 -52 -156 -5 -47 -14 -252 -20 -456 -9 -281 -9 -394
-1 -470 7 -55 16 -188 21 -295 10 -217 21 -322 52 -485 11 -60 27 -155 34
-210 18 -142 33 -227 43 -250 5 -11 21 -72 37 -135 33 -138 38 -266 12 -350
-21 -70 -126 -378 -138 -405 -5 -11 -12 -36 -15 -55 -4 -19 -17 -69 -29 -110
-13 -41 -28 -97 -34 -125 -5 -27 -17 -75 -26 -105 -9 -30 -23 -84 -31 -120 -8
-35 -22 -85 -30 -110 -8 -25 -19 -72 -24 -105 -12 -71 -24 -128 -57 -252 -13
-51 -24 -108 -24 -126 0 -18 -6 -56 -14 -83 -7 -27 -21 -94 -30 -149 -9 -55
-23 -129 -31 -165 -8 -36 -24 -153 -36 -260 -26 -232 -38 -809 -20 -913 6 -34
18 -116 26 -182 9 -66 22 -142 29 -170 8 -27 17 -81 20 -120 12 -128 63 -265
98 -265 18 0 19 5 16 58 -5 67 -43 308 -59 372 -17 70 -38 452 -38 685 0 197
17 473 38 610 5 33 10 104 10 157 1 53 6 109 12 125 6 15 14 57 19 93 19 152
69 385 96 448 7 19 30 109 49 200 46 214 165 667 228 867 51 161 68 192 80
145 5 -21 -15 -153 -39 -245 -9 -33 -22 -93 -29 -135 -8 -41 -30 -145 -50
-230 -29 -129 -77 -445 -74 -492 0 -7 9 21 19 62 10 41 26 100 35 130 34 111
45 155 45 185 0 16 9 64 20 105 12 41 27 98 35 125 7 28 21 86 30 130 9 44 20
96 26 117 5 20 14 58 20 85 10 48 25 119 53 248 8 39 20 92 26 119 5 28 14 64
20 80 5 17 23 78 40 136 17 58 36 119 42 135 5 17 14 45 18 64 5 19 17 46 27
60 17 23 76 172 101 256 11 37 42 40 59 5 16 -36 26 -376 13 -480 -29 -238
-35 -276 -75 -445 -35 -153 -46 -201 -54 -235 -4 -19 -13 -51 -19 -70 -6 -19
-19 -71 -28 -115 -22 -104 -52 -224 -59 -235 -6 -10 -18 -64 -41 -190 -26
-139 -42 -221 -59 -295 -21 -98 -44 -238 -50 -315 -5 -60 -15 -117 -50 -295
-32 -163 -35 -204 -35 -511 0 -411 8 -530 66 -974 40 -311 128 -688 225 -967
63 -182 89 -270 89 -302 l0 -24 -25 29 c-28 32 -137 300 -179 439 -15 50 -47
151 -71 225 -91 284 -160 641 -215 1120 -11 96 -27 232 -35 301 -18 151 -19
283 -4 419 11 91 10 102 -6 120 -16 18 -17 28 -5 132 8 75 9 121 2 138 -8 23
-10 20 -21 -30 -7 -30 -15 -95 -18 -145 -3 -49 -11 -93 -17 -97 -14 -9 -11
-368 4 -553 5 -70 10 -158 10 -196 0 -37 5 -80 11 -96 6 -15 15 -77 19 -138
10 -137 51 -400 70 -451 6 -14 10 -36 10 -49 0 -12 6 -45 14 -71 8 -27 22 -85
30 -129 43 -208 137 -499 232 -712 8 -17 14 -36 14 -42 0 -6 15 -43 34 -83 18
-40 44 -98 57 -128 12 -30 32 -71 43 -90 12 -19 30 -53 41 -75 26 -52 105
-168 122 -178 7 -4 13 -16 13 -25 0 -9 22 -43 49 -75 28 -31 60 -72 72 -90 12
-17 30 -40 38 -49 9 -9 27 -31 41 -49 53 -68 181 -182 222 -198 59 -22 37 27
-55 119 -64 65 -97 114 -97 145 0 10 -6 29 -14 43 -28 55 -106 269 -106 293 0
11 -4 27 -9 37 -5 9 -14 37 -20 62 -7 25 -16 59 -21 75 -41 132 -99 376 -111
470 -6 39 -15 91 -21 118 -6 31 -7 52 0 60 6 8 5 47 -4 112 -7 55 -21 163 -31
240 -31 236 -21 1221 12 1275 13 20 21 -10 40 -150 9 -69 23 -164 31 -213 19
-116 18 -153 -6 -185 -36 -50 -50 -304 -30 -531 24 -261 46 -384 74 -419 12
-15 31 -58 41 -97 10 -38 24 -82 31 -97 8 -15 14 -38 14 -52 0 -14 17 -62 39
-108 21 -46 49 -108 62 -138 13 -30 64 -122 114 -203 49 -82 100 -165 111
-185 12 -20 35 -52 51 -72 16 -19 49 -65 73 -102 24 -37 52 -69 62 -71 10 -3
21 -13 24 -22 4 -9 20 -31 36 -48 17 -18 44 -61 62 -97 l31 -65 3 -480 c3
-491 2 -499 -36 -682 -11 -49 -7 -55 10 -15 14 36 27 103 34 182 3 36 12 97
20 135 30 149 36 249 30 519 -6 255 -6 268 11 261 10 -4 33 -13 50 -19 18 -7
45 -30 60 -51 77 -106 281 -295 320 -295 18 0 23 5 23 27 0 29 -11 40 -282
298 -123 117 -208 224 -229 290 -7 22 -22 60 -33 85 l-21 45 -5 -30 c-5 -30
-5 -30 -70 49 -35 43 -88 112 -117 155 -29 42 -57 81 -62 87 -4 6 -21 30 -37
55 -31 47 -34 53 -78 126 -16 26 -44 71 -62 100 -19 28 -34 55 -34 60 0 5 -19
44 -41 88 -67 128 -79 153 -79 165 0 10 -38 136 -62 205 -6 17 -14 50 -18 75
-5 25 -20 83 -34 129 -27 87 -36 224 -17 236 5 3 9 72 9 153 0 81 4 161 10
177 12 37 15 31 42 -100 12 -60 36 -132 59 -180 42 -88 69 -155 100 -255 30
-96 48 -144 69 -181 10 -19 27 -58 36 -86 10 -29 22 -55 27 -58 18 -12 9 63
-11 88 -12 15 -25 51 -30 81 -5 30 -20 76 -33 102 -13 27 -27 66 -30 87 -3 20
-15 51 -27 67 -12 16 -24 47 -27 67 -3 21 -10 47 -16 58 -11 20 -16 44 -36
150 -7 33 -16 69 -21 80 -12 24 -27 109 -40 223 -6 46 -13 88 -16 94 -4 5 -10
35 -14 66 -7 54 -14 92 -42 252 -20 120 -30 234 -29 335 1 55 -3 120 -8 145
-31 145 -18 146 39 4 24 -58 58 -124 76 -146 19 -22 34 -45 34 -52 0 -7 25
-61 55 -122 60 -120 85 -190 85 -241 0 -19 6 -62 14 -96 17 -72 40 -193 56
-292 6 -38 15 -92 20 -120 4 -27 13 -63 19 -78 6 -16 11 -41 11 -57 0 -15 7
-41 15 -56 8 -16 15 -39 15 -51 0 -12 5 -25 10 -28 6 -3 10 -20 10 -36 0 -17
5 -39 10 -50 6 -10 15 -43 21 -73 5 -30 21 -82 35 -117 21 -51 28 -94 39 -238
8 -97 23 -212 34 -256 11 -44 19 -81 17 -82 -1 -1 -26 32 -56 73 -30 42 -65
85 -78 95 -14 10 -33 36 -44 58 -11 22 -25 42 -33 45 -20 7 -1 -51 26 -80 11
-12 40 -65 63 -117 24 -52 64 -126 90 -165 25 -38 46 -73 46 -77 0 -13 61
-107 88 -137 13 -14 36 -32 51 -38 15 -6 31 -21 36 -33 6 -13 21 -23 36 -25
15 -2 55 -31 100 -73 41 -39 108 -91 149 -117 41 -25 82 -51 90 -58 33 -26
227 -118 272 -128 15 -3 42 -21 61 -39 34 -32 34 -33 41 -146 4 -63 13 -124
19 -135 9 -16 12 -156 11 -536 0 -439 -3 -528 -17 -600 -27 -134 -45 -227 -66
-335 -22 -116 -60 -249 -96 -337 -14 -34 -25 -65 -25 -69 0 -4 -13 -36 -29
-71 -16 -35 -41 -89 -54 -120 -14 -31 -46 -86 -71 -122 -25 -36 -46 -69 -46
-73 0 -18 -212 -287 -274 -348 -119 -116 -169 -154 -214 -161 -66 -10 -38 -27
33 -20 113 11 252 58 370 123 22 12 60 34 85 47 25 14 70 43 100 65 30 23 66
46 80 53 14 7 27 15 30 18 3 3 18 16 35 29 36 27 194 170 212 191 7 8 32 38
56 65 24 28 53 66 65 85 11 19 29 44 39 55 27 31 83 114 83 125 0 10 90 110
99 110 13 0 51 -123 61 -195 13 -95 27 -164 39 -200 5 -16 12 -55 16 -85 6
-58 18 -103 41 -158 8 -18 14 -42 14 -52 0 -11 4 -20 9 -20 5 0 16 -24 26 -53
18 -54 83 -198 94 -207 3 -3 15 -23 26 -45 28 -55 130 -209 183 -275 25 -30
85 -94 135 -141 l90 -87 -8 -48 c-4 -27 -27 -99 -51 -161 -24 -61 -44 -116
-44 -122 0 -6 -32 -77 -71 -158 -105 -219 -136 -282 -174 -348 -19 -33 -40
-72 -48 -86 -8 -14 -48 -71 -90 -127 -43 -56 -77 -105 -77 -111 0 -5 -4 -11
-8 -13 -5 -1 -28 -29 -51 -60 -24 -32 -47 -58 -51 -58 -11 0 -140 -131 -140
-141 0 -20 58 -6 134 32 44 22 88 46 96 53 8 8 33 23 55 35 46 24 53 29 155
95 41 27 77 53 78 58 2 4 8 8 13 8 6 0 22 11 37 25 15 14 31 25 35 25 5 0 45
29 90 66 45 36 106 81 135 100 28 19 80 61 114 92 35 31 67 60 73 64 101 72
433 404 479 478 55 89 110 166 144 202 28 29 39 35 53 28 10 -6 29 -10 42 -10
48 0 73 -33 87 -112 6 -40 15 -95 20 -123 12 -69 11 -620 -1 -675 -5 -25 -14
-94 -19 -155 -10 -109 -26 -226 -54 -380 -14 -79 -27 -131 -61 -250 -10 -33
-20 -73 -22 -90 -3 -16 -12 -39 -19 -50 -8 -11 -14 -29 -14 -41 0 -23 -49
-163 -74 -212 -9 -17 -16 -36 -16 -42 0 -6 -29 -70 -64 -143 -65 -136 -133
-243 -246 -387 -129 -164 -137 -183 -72 -188 34 -3 56 4 100 29 45 25 134 90
162 119 3 3 22 18 42 33 21 15 71 58 111 96 41 38 78 70 83 72 5 2 33 31 63
64 30 33 91 98 135 145 45 47 91 99 104 115 66 87 139 193 148 215 6 14 27 45
45 70 19 25 42 58 52 73 17 26 72 67 90 67 24 0 -5 -210 -42 -293 -11 -27 -21
-57 -21 -67 0 -11 -10 -43 -21 -72 -32 -79 -58 -148 -76 -198 -8 -25 -21 -58
-28 -75 -7 -16 -25 -59 -40 -95 -15 -36 -34 -81 -43 -100 -24 -57 -90 -192
-111 -230 -10 -19 -36 -69 -57 -110 -20 -41 -46 -90 -57 -110 -11 -19 -38 -69
-60 -110 -23 -41 -73 -120 -112 -175 -74 -105 -121 -181 -142 -229 -16 -35
-16 -33 1 -39 10 -4 34 18 69 61 30 37 72 85 93 107 74 76 146 160 180 210 18
28 69 87 111 133 43 46 91 100 106 120 63 82 172 242 233 342 36 58 84 134
107 170 79 126 237 436 237 466 0 23 40 96 64 115 11 10 28 18 37 19 19 0 49
-31 49 -51 0 -8 8 -26 17 -39 14 -19 18 -47 19 -120 0 -52 2 -104 3 -115 2
-18 3 -17 12 5 7 15 8 64 4 128 -5 66 -3 102 3 102 13 0 44 -54 82 -142 17
-40 52 -116 77 -168 54 -112 58 -123 77 -175 8 -22 28 -78 46 -125 17 -47 34
-94 37 -105 3 -11 20 -51 38 -90 39 -83 135 -333 135 -351 0 -7 9 -28 19 -46
11 -18 31 -64 46 -103 14 -38 32 -83 39 -100 39 -85 55 -136 62 -185 4 -30 10
-57 14 -60 12 -9 60 -152 60 -181 0 -15 5 -31 10 -34 6 -3 10 -16 10 -29 0
-12 7 -31 15 -42 8 -10 15 -30 15 -44 0 -14 11 -47 25 -75 13 -27 25 -61 25
-75 0 -14 7 -38 16 -55 24 -46 54 -137 54 -162 0 -13 11 -45 24 -71 13 -26 26
-67 30 -92 3 -25 11 -65 16 -90 6 -25 15 -74 20 -110 12 -79 79 -356 93 -387
6 -13 12 -21 14 -19 10 10 3 240 -11 379 -8 84 -20 211 -26 282 -12 133 -13
143 -31 255 -11 68 -12 125 -3 225 5 59 -30 414 -61 605 -14 92 -25 181 -65
550 -11 96 -22 184 -24 195 -6 24 -59 438 -81 630 -8 72 -24 189 -35 260 -10
72 -29 198 -40 280 -12 83 -30 192 -40 242 -9 51 -16 93 -14 93 1 0 32 -41 69
-92 37 -50 93 -146 124 -213 32 -67 85 -164 117 -216 60 -95 96 -145 349 -484
78 -104 170 -232 204 -283 74 -111 223 -396 319 -612 38 -85 128 -277 200
-426 72 -149 158 -331 190 -405 147 -330 682 -1465 884 -1873 59 -121 108
-225 108 -233 0 -10 30 -13 141 -13 l140 0 -7 22 c-3 13 -22 61 -41 106 -19
46 -43 114 -55 150 -23 75 -150 397 -179 453 -20 40 -162 388 -245 602 -29 75
-61 151 -69 167 -9 17 -28 65 -44 107 -62 171 -172 456 -231 598 -61 148 -125
302 -180 440 -16 39 -55 126 -88 195 -66 140 -78 170 -64 170 5 0 135 -125
288 -278 315 -313 663 -645 879 -837 50 -44 142 -127 205 -185 63 -59 167
-150 230 -204 63 -54 171 -146 240 -205 146 -125 515 -419 680 -542 222 -166
386 -261 575 -332 152 -57 194 -68 448 -112 392 -68 800 -103 1006 -86 538 43
969 115 1180 197 283 111 595 324 1112 761 64 54 181 153 260 219 580 489
1400 1269 2236 2129 475 489 535 554 692 750 218 272 318 427 360 556 19 57
88 185 96 177 6 -6 -15 -180 -26 -220 -14 -52 -55 -317 -69 -448 -6 -57 -13
-107 -15 -110 -6 -10 -92 -590 -110 -740 -31 -263 -31 -240 -5 -240 37 0 77
-53 85 -113 4 -28 11 -56 15 -62 8 -11 27 -79 40 -140 4 -22 14 -56 21 -75 7
-19 26 -71 41 -115 16 -44 42 -114 58 -155 15 -41 40 -109 55 -150 34 -94 63
-158 177 -390 78 -158 147 -272 295 -490 41 -60 137 -171 205 -236 102 -98
136 -124 164 -124 45 0 27 37 -69 138 -157 165 -175 197 -226 397 -6 22 -17
65 -25 95 -8 30 -19 75 -25 100 -6 25 -20 78 -31 119 -11 41 -20 93 -20 115 0
23 -7 68 -15 99 -8 32 -15 81 -15 110 -1 29 -5 84 -10 122 -6 39 -15 147 -20
240 -6 94 -14 215 -20 270 -12 135 -12 406 0 480 6 33 15 101 20 150 7 69 17
109 45 168 19 43 35 88 35 101 0 12 4 26 9 32 4 5 29 63 55 129 25 66 70 164
99 217 57 106 208 319 214 302 2 -6 -9 -50 -23 -100 -15 -49 -37 -123 -50
-166 -35 -116 -70 -498 -46 -498 25 0 32 30 32 135 0 95 3 117 24 161 13 28
27 66 31 85 23 115 39 166 59 185 13 13 32 56 46 103 13 47 28 80 34 78 6 -2
13 -39 16 -87 3 -54 9 -85 18 -88 8 -2 12 -32 13 -100 0 -95 6 -153 28 -317 7
-44 16 -118 22 -165 5 -47 15 -114 20 -150 6 -36 14 -97 18 -136 5 -39 11 -76
15 -82 4 -7 11 -35 16 -64 5 -29 18 -96 30 -148 11 -52 25 -120 30 -150 5 -30
16 -80 25 -110 9 -30 27 -95 40 -145 31 -116 34 -124 153 -384 36 -79 75 -156
87 -170 11 -14 36 -52 55 -84 75 -126 233 -276 328 -313 74 -28 73 -5 -3 72
-37 38 -78 83 -91 99 -28 37 -124 228 -124 247 0 8 -4 18 -8 24 -18 20 -42
104 -62 219 -12 66 -26 138 -32 160 -15 58 -22 694 -9 840 25 274 34 338 88
565 8 36 19 88 23 117 5 28 11 56 14 61 3 5 10 33 15 63 5 30 17 80 26 111 50
185 72 268 91 343 14 58 19 77 45 175 26 99 41 131 66 141 31 12 73 -12 73
-41 0 -10 4 -21 9 -24 4 -3 11 -18 14 -33 3 -16 38 -81 76 -145 39 -65 71
-120 71 -124 0 -12 122 -167 169 -214 58 -59 164 -149 207 -175 17 -11 56 -36
86 -55 62 -41 102 -61 178 -91 30 -12 78 -31 105 -41 49 -20 64 -23 193 -48
70 -14 144 -6 162 15 7 8 10 15 7 15 -2 0 -48 9 -101 20 -84 17 -104 26 -164
69 -80 58 -197 183 -265 284 -57 83 -152 275 -166 332 -5 22 -17 67 -26 100
-10 33 -24 98 -31 145 -8 47 -22 132 -33 190 -15 81 -20 150 -20 304 -1 197
-1 199 30 290 17 50 35 96 39 101 5 6 18 35 30 65 11 30 32 79 45 108 14 29
25 55 25 57 0 3 23 53 51 112 28 60 62 133 76 163 13 30 31 69 38 85 7 17 22
50 33 75 11 25 29 65 40 90 11 25 23 56 25 70 16 73 37 142 62 200 22 52 30
94 41 215 20 224 35 305 54 305 25 0 71 -35 77 -58 22 -92 171 -253 334 -362
139 -93 249 -140 434 -184 39 -10 86 -21 105 -26 19 -5 64 -12 100 -14 36 -3
88 -10 115 -15 65 -13 392 -7 470 8 81 16 86 18 79 36 -7 16 1 14 -274 79
-107 26 -218 58 -247 71 -28 14 -58 25 -66 25 -8 0 -20 7 -27 15 -7 8 -16 15
-21 15 -9 0 -63 37 -104 72 -11 9 -47 39 -80 66 -60 49 -74 64 -162 177 -55
70 -133 194 -133 211 0 6 -6 17 -13 23 -8 6 -26 41 -42 78 -15 38 -45 105 -66
151 -22 46 -39 93 -39 105 0 11 -13 60 -29 107 -28 85 -46 161 -61 255 -4 28
-13 77 -19 109 -6 33 -11 151 -11 263 -1 229 -10 198 91 328 26 33 61 89 78
124 18 34 34 61 36 59 3 -2 0 -46 -6 -98 -6 -52 -8 -119 -6 -150 3 -30 10
-116 16 -191 8 -107 15 -148 35 -192 13 -30 27 -73 31 -95 3 -22 15 -48 25
-57 11 -10 29 -38 42 -64 49 -103 118 -174 150 -155 17 11 -1 52 -61 148 -51
81 -85 145 -126 241 -39 90 -56 311 -35 443 18 111 33 275 32 352 -2 108 23
226 73 335 51 114 209 692 265 975 52 262 78 403 95 515 22 153 23 155 45 155
28 0 32 -29 16 -111 -8 -41 -24 -126 -36 -189 -11 -63 -25 -133 -30 -155 -51
-220 -127 -632 -140 -760 -6 -55 -15 -127 -19 -160 -5 -33 -5 -64 -1 -68 14
-15 52 106 57 183 3 41 10 83 15 93 5 10 13 50 19 90 5 40 16 106 24 147 8 41
28 149 45 240 17 91 34 185 39 210 5 25 14 79 20 120 7 41 17 95 23 120 6 25
14 65 18 90 14 80 39 193 60 265 12 39 25 84 30 100 14 50 56 156 89 227 17
36 31 69 31 71 0 3 10 27 22 54 45 101 108 281 108 310 0 28 38 171 59 223 10
25 26 78 36 118 10 41 21 70 25 65 4 -4 15 -51 24 -103 9 -52 22 -129 30 -170
36 -187 46 -319 57 -730 12 -438 2 -971 -21 -1145 -5 -44 -17 -129 -25 -190
-8 -60 -17 -135 -20 -165 -9 -88 -54 -369 -70 -435 -7 -33 -28 -123 -45 -200
-17 -77 -35 -153 -41 -170 -6 -16 -14 -44 -19 -62 -4 -17 -17 -44 -27 -60 -27
-37 -101 -191 -108 -224 -5 -19 -2 -28 9 -32 9 -4 16 -1 16 6 0 7 16 30 35 52
19 22 35 46 35 53 0 6 5 12 10 12 6 0 10 6 10 14 0 8 6 21 13 28 20 21 47 75
47 92 0 9 4 16 9 16 5 0 14 14 20 30 5 17 15 30 20 30 6 0 11 8 11 18 0 10 18
54 39 97 22 44 54 116 71 160 18 44 37 91 44 105 33 65 64 138 70 168 4 17 19
53 33 80 29 55 83 190 83 210 0 7 11 38 25 67 13 30 27 67 31 82 4 16 10 33
15 38 4 6 13 31 19 55 25 109 60 224 69 233 6 6 11 25 11 42 0 17 5 36 11 42
7 7 16 33 20 60 5 26 15 75 23 108 35 149 105 491 113 550 2 17 10 64 18 105
14 74 25 159 44 335 6 50 15 110 20 135 6 25 10 86 11 135 0 50 4 118 9 152
24 161 33 550 22 898 -6 193 -15 382 -20 420 -5 39 -19 169 -31 290 -11 121
-27 272 -36 335 -41 314 -84 612 -97 670 -8 36 -23 121 -32 190 -10 69 -26
176 -36 239 -26 156 -24 183 8 101 93 -241 209 -977 253 -1605 7 -93 16 -178
21 -187 15 -28 48 -22 60 10 27 69 -51 958 -106 1222 -8 37 -21 114 -30 171
-9 57 -25 151 -36 209 -36 188 -189 661 -334 1036 -108 276 -185 534 -161 534
21 0 204 -346 281 -530 15 -36 47 -104 71 -152 85 -169 216 -521 309 -828 103
-342 166 -648 205 -1006 17 -157 15 -774 -4 -924 -34 -285 -63 -447 -112 -647
-14 -56 -24 -111 -22 -124 5 -34 38 -33 76 4 62 59 204 258 249 348 25 49 51
89 59 89 11 0 14 25 14 136 0 115 -2 135 -14 125 -7 -6 -16 -29 -20 -51 -9
-59 -61 -184 -115 -280 -27 -47 -58 -103 -69 -126 -11 -22 -28 -47 -38 -55
-16 -13 -17 -11 -10 33 4 25 43 154 86 287 86 259 140 498 140 611 -1 156 -41
494 -105 866 -33 190 -58 292 -138 556 -19 64 -45 167 -57 228 -11 61 -25 122
-31 137 -5 14 -21 78 -35 142 -39 181 -138 533 -220 786 -42 127 -85 259 -96
295 -12 36 -40 112 -64 170 -23 58 -50 132 -59 165 -27 93 -161 426 -227 565
-33 69 -88 195 -123 280 -35 85 -77 187 -95 225 -17 39 -65 160 -105 270 -40
110 -89 234 -108 275 -106 228 -179 373 -220 437 -26 39 -47 74 -47 76 0 3
-23 45 -51 94 -90 156 -89 165 5 28 282 -412 323 -479 504 -820 119 -226 165
-319 252 -510 39 -88 98 -216 130 -285 68 -145 176 -413 262 -650 32 -91 75
-205 95 -255 19 -49 70 -211 113 -360 43 -148 94 -324 115 -390 133 -435 256
-1032 295 -1435 14 -137 21 -172 38 -178 9 -3 12 59 12 279 0 236 -2 284 -15
293 -9 7 -29 88 -55 221 -22 116 -50 250 -62 298 -19 80 -20 94 -8 135 7 26
19 74 27 107 19 85 28 566 15 780 -19 288 -33 438 -44 480 -6 22 -14 76 -19
120 -4 44 -19 150 -33 235 -14 85 -31 191 -37 235 -7 44 -17 96 -25 115 -7 19
-15 64 -19 99 -3 35 -15 98 -27 140 -11 42 -24 99 -29 126 -8 50 -31 147 -41
175 -15 44 -37 119 -43 147 -9 46 -25 51 -25 9 0 -19 5 -38 10 -41 6 -3 10
-18 10 -33 0 -15 6 -36 13 -47 12 -18 16 -52 20 -170 1 -16 9 -39 19 -50 26
-27 38 -82 37 -156 -1 -35 8 -104 19 -154 29 -130 69 -386 87 -565 9 -85 20
-184 25 -220 30 -206 39 -1145 11 -1173 -11 -11 -10 -13 -35 103 -18 78 -41
260 -56 430 -16 174 -47 414 -71 539 -12 59 -27 148 -35 200 -12 83 -74 346
-149 642 -14 52 -50 157 -80 233 -30 76 -55 144 -55 151 0 7 -7 26 -15 41 -8
16 -15 39 -15 51 0 12 -4 25 -10 28 -5 3 -10 17 -10 30 0 13 -6 36 -14 52 -24
46 -106 247 -106 258 0 5 -11 32 -24 60 -14 27 -31 68 -40 90 -45 122 -70 184
-87 222 -10 23 -19 47 -19 54 0 7 -7 20 -15 29 -9 10 -67 119 -129 242 -63
124 -130 250 -149 281 -52 81 -177 345 -177 373 0 9 69 2 125 -11 33 -8 85
-15 116 -15 33 0 63 -6 75 -15 10 -8 25 -15 31 -15 7 0 24 -10 39 -22 32 -28
65 -42 61 -26 -4 22 92 31 144 14 26 -9 55 -16 64 -16 10 0 31 -6 48 -14 18
-8 52 -17 77 -19 77 -7 203 -28 240 -39 19 -6 64 -14 100 -19 36 -4 92 -12
125 -18 77 -14 191 -14 216 -1 15 8 19 21 19 59 l0 49 -42 7 c-56 8 -135 34
-173 55 -17 10 -88 36 -158 59 -70 23 -169 61 -219 85 -51 24 -104 47 -118 51
-14 4 -71 30 -128 56 -57 27 -105 49 -108 49 -3 0 -76 36 -164 79 -87 44 -161
77 -164 73 -3 -3 -6 -1 -6 5 0 5 -50 41 -111 79 -112 70 -282 182 -618 410
-488 330 -836 608 -889 709 -12 24 -12 28 -1 19 8 -6 46 -35 84 -65 39 -29
124 -96 190 -149 246 -194 588 -426 1074 -727 51 -32 134 -84 185 -116 121
-76 505 -269 686 -345 80 -33 224 -89 320 -125 151 -55 208 -73 303 -92 9 -2
17 2 17 8 0 7 -37 23 -83 36 -45 13 -105 35 -133 48 -28 12 -57 23 -64 23 -16
0 -243 100 -250 110 -3 4 -21 10 -40 14 -19 3 -86 31 -148 61 -62 30 -117 55
-122 55 -6 0 -29 11 -51 26 -22 14 -82 46 -132 71 -118 59 -172 99 -192 143
-49 107 -60 116 -80 72 -5 -12 -13 -22 -17 -22 -19 0 -157 72 -185 97 -31 27
-103 118 -103 129 0 3 -11 20 -25 38 -14 18 -25 36 -25 39 0 4 -24 47 -52 97
-29 50 -57 98 -63 108 -5 10 -29 48 -52 84 -24 37 -43 70 -43 73 0 2 -7 13
-15 22 -8 10 -34 46 -57 81 -113 164 -203 292 -244 347 -24 33 -48 69 -53 80
-5 11 -24 39 -42 62 -100 122 -205 259 -264 344 -27 40 -66 92 -85 115 -104
127 -120 152 -120 183 0 21 -5 31 -15 31 -21 0 -97 71 -148 139 -62 83 -166
209 -218 266 -25 27 -57 71 -72 96 l-26 46 52 -4 c154 -13 220 -27 277 -60 94
-54 164 -74 145 -42 -9 13 212 11 237 -2 12 -6 84 -17 162 -25 169 -16 871
-20 861 -4 -3 5 0 7 9 4 8 -3 21 -2 28 2 22 14 -130 33 -352 44 -296 15 -542
36 -690 60 -69 11 -149 20 -178 20 -29 0 -88 7 -130 16 -102 21 -153 56 -322
220 -138 135 -197 188 -239 217 -14 9 -43 34 -65 55 -23 21 -59 51 -81 67 -22
16 -76 63 -120 106 -82 78 -246 202 -291 219 -33 13 -94 60 -94 72 0 6 15 25
34 44 28 28 42 34 75 34 23 0 57 6 75 14 18 7 57 17 87 21 30 3 88 14 129 22
110 23 403 23 488 0 35 -9 76 -17 92 -17 16 0 51 -5 78 -11 27 -7 66 -9 86 -5
30 6 38 12 43 37 4 19 12 29 24 29 10 0 21 5 24 10 4 6 11 7 17 4 6 -4 8 -2 4
4 -3 5 0 13 6 15 7 3 3 6 -9 6 -13 1 -23 6 -23 11 0 6 -15 10 -32 10 -23 0
-29 3 -19 9 23 15 -45 30 -139 32 -166 2 -309 27 -294 50 9 15 -39 31 -105 35
-194 11 -237 16 -256 28 -11 8 -41 16 -65 18 -66 7 -238 76 -262 105 -6 7 -17
13 -26 13 -8 0 -41 18 -73 40 -32 22 -62 40 -66 40 -8 0 -124 70 -133 79 -34
39 -579 290 -865 398 -340 129 -536 163 -720 125 -55 -12 -127 -24 -160 -28
-54 -7 -59 -6 -47 8 36 44 215 94 369 103 180 11 264 -3 558 -99 536 -173 664
-211 678 -197 8 8 7 11 -2 11 -7 0 -31 13 -54 28 -23 16 -55 32 -72 36 -16 4
-64 24 -105 43 -41 20 -88 40 -105 44 -16 4 -75 24 -130 44 -55 19 -143 49
-195 66 -52 17 -108 35 -125 41 -115 39 -260 67 -345 67 -103 1 -294 -23 -357
-44 -88 -29 -93 -20 -68 112 8 43 15 81 15 86 0 4 -65 7 -144 7 l-143 0 -5
-117 c-3 -71 -11 -132 -20 -153 -16 -38 -65 -100 -78 -100 -5 0 -12 21 -15 48
-4 26 -15 94 -26 152 -10 58 -19 120 -19 138 l0 32 -5985 0 c-5035 0 -5985 -2
-5985 -14 0 -7 -21 -24 -47 -38 -75 -39 -426 -274 -464 -311 -39 -37 -123 -97
-137 -97 -9 0 -56 -33 -117 -83 -51 -42 -194 -137 -220 -147 -14 -5 -52 -28
-84 -51 -48 -34 -69 -42 -109 -44 -61 -3 -117 -34 -262 -145 -58 -44 -155
-119 -217 -165 -62 -46 -151 -116 -198 -155 -48 -38 -89 -70 -93 -70 -21 1
315 310 571 524 164 136 332 281 373 322 41 40 85 76 97 80 12 4 24 10 27 13
13 16 145 114 235 174 194 129 268 182 273 195 3 9 -43 12 -202 12 -175 0
-206 -2 -206 -15 0 -8 -12 -17 -27 -21 -85 -19 -117 -31 -242 -94 -79 -40
-201 -90 -290 -120 -85 -28 -167 -58 -181 -65 -14 -7 -116 -45 -225 -83 -110
-39 -245 -87 -300 -107 -95 -35 -264 -85 -288 -85 -19 0 3 16 128 91 155 93
327 183 490 257 72 33 161 74 200 92 38 18 113 50 165 71 162 68 163 73 17 77
-89 2 -108 0 -113 -13z m14616 -922 c135 -39 150 -45 315 -123 61 -28 142 -60
180 -70 98 -26 113 -32 177 -81 31 -24 114 -81 185 -126 70 -46 141 -93 157
-106 l29 -23 -38 -52 c-22 -32 -41 -49 -48 -45 -112 68 -297 225 -297 252 0 5
-18 7 -40 4 -34 -5 -52 2 -137 50 -261 147 -321 179 -493 261 -102 48 -189 92
-195 98 -16 16 67 0 205 -39z m1153 -614 c45 -24 293 -217 415 -323 69 -61
187 -161 263 -221 171 -139 280 -236 314 -281 l27 -35 -39 6 c-58 10 -205 52
-255 74 -49 21 -88 53 -283 236 -191 178 -224 208 -397 345 -87 68 -158 130
-158 137 0 9 74 71 88 73 2 0 13 -5 25 -11z m-3388 -2946 c3 -15 10 -62 15
-106 7 -62 17 -93 46 -145 l37 -66 -31 -160 c-34 -169 -43 -233 -66 -461 -37
-357 -38 -380 -33 -860 l4 -480 36 -235 c92 -614 265 -1061 564 -1464 41 -54
72 -100 70 -102 -5 -6 -145 14 -253 36 -107 21 -322 109 -434 177 -133 81
-352 283 -442 408 -128 178 -264 436 -303 574 -14 50 -34 114 -45 142 -11 27
-27 85 -35 127 -8 42 -19 97 -25 122 -61 274 -80 839 -40 1197 36 317 67 493
116 658 15 52 96 163 206 284 108 119 327 276 475 341 107 47 128 49 138 13z
m-1906 -623 c6 -28 11 -101 11 -161 0 -61 7 -156 15 -212 8 -56 24 -169 35
-252 28 -199 133 -632 188 -770 50 -126 93 -228 117 -276 22 -42 29 -77 40
-193 31 -323 28 -910 -5 -1251 -21 -210 -32 -308 -39 -332 l-7 -26 -403 -1
-403 -1 -9 22 c-13 34 -29 365 -29 593 0 218 11 429 36 675 8 83 19 195 24
249 5 55 19 147 29 205 11 58 23 142 26 186 3 44 12 105 20 136 8 30 24 116
35 190 24 166 36 232 61 334 11 44 29 123 39 175 11 52 43 192 70 310 27 118
59 259 71 313 11 53 24 97 29 97 4 0 10 9 13 20 9 35 25 22 36 -30z m2027
-636 c-3 -8 -2 -13 3 -10 21 13 44 -55 77 -227 19 -100 51 -235 70 -300 19
-66 34 -129 34 -142 0 -13 5 -27 10 -30 6 -3 10 -18 10 -33 0 -27 25 -109 39
-127 4 -5 20 -50 35 -100 44 -144 72 -216 178 -455 187 -420 337 -699 563
-1046 256 -393 580 -752 893 -993 94 -73 172 -135 172 -137 0 -2 -51 15 -112
37 -284 103 -341 122 -468 160 -193 57 -264 86 -323 130 -102 77 -377 324
-377 340 0 4 19 18 43 31 27 15 42 30 42 43 0 18 -7 20 -85 20 -65 0 -92 4
-112 17 -37 24 -173 214 -273 382 -143 240 -241 481 -319 786 -99 386 -131
674 -130 1185 1 193 3 364 6 380 3 17 6 47 7 68 0 20 6 37 12 37 6 0 8 -7 5
-16z m-3842 -832 c50 -98 146 -408 185 -592 69 -327 95 -578 88 -843 -11 -398
-33 -539 -132 -842 -66 -201 -197 -490 -252 -555 -13 -16 -64 -54 -112 -85
-85 -53 -108 -76 -95 -96 8 -14 58 -11 111 7 133 45 330 226 489 451 97 137
291 453 324 528 137 312 226 560 280 780 37 149 46 172 54 135 13 -58 26 -152
36 -260 13 -136 39 -285 74 -430 15 -58 29 -148 32 -201 6 -90 5 -98 -15 -118
-23 -23 -48 -26 -84 -10 -53 24 -167 -63 -511 -391 -67 -63 -146 -146 -177
-185 -75 -93 -91 -107 -253 -219 -76 -54 -180 -130 -230 -171 -110 -89 -337
-317 -360 -363 -9 -18 -21 -72 -27 -119 -9 -82 -8 -87 12 -109 23 -24 23 -57
3 -223 l-7 -53 -201 7 c-116 4 -302 2 -441 -4 -219 -11 -284 -16 -457 -37 -55
-6 -57 -6 -71 22 -8 16 -22 60 -31 98 -33 133 -104 253 -228 383 -43 45 -78
85 -78 90 0 28 32 244 40 273 6 19 10 53 10 75 0 55 20 81 70 89 83 13 102 76
28 98 -21 6 -43 19 -47 27 -9 17 1 55 17 65 21 13 246 -178 458 -385 128 -126
154 -139 154 -75 0 27 -26 57 -234 262 -209 206 -239 239 -275 309 -23 42 -41
83 -41 89 0 45 207 537 272 646 12 19 43 77 69 128 89 168 121 214 184 262 91
69 337 319 470 478 15 17 33 32 40 32 16 0 -1 -81 -39 -195 -63 -183 -113
-442 -167 -855 -31 -235 -21 -979 15 -1220 52 -344 59 -370 96 -370 38 0 43
35 26 186 -8 76 -18 173 -21 214 -3 41 -15 185 -26 320 -17 197 -20 288 -16
465 7 269 39 596 73 736 13 57 40 178 58 269 51 247 154 581 217 702 13 26 48
76 77 110 99 118 249 320 388 523 37 55 76 109 86 119 10 11 18 23 18 27 0 8
40 49 47 49 1 0 14 -22 27 -48z m2385 -509 c5 -10 17 -54 26 -98 26 -119 99
-323 159 -449 51 -104 176 -285 259 -375 56 -59 246 -209 320 -253 107 -62
306 -150 437 -192 63 -21 162 -55 220 -78 232 -88 342 -116 540 -133 41 -4 90
-14 108 -22 18 -9 72 -54 120 -102 48 -47 114 -110 146 -139 32 -29 56 -55 54
-57 -10 -10 -390 76 -459 104 -95 38 -371 84 -664 111 -277 26 -345 34 -585
70 -107 16 -251 36 -320 45 -69 9 -171 23 -226 31 -56 8 -126 14 -157 14 -62
0 -68 6 -56 60 4 19 12 100 19 180 6 80 16 195 21 255 17 194 23 686 10 852
-12 147 -10 193 9 193 5 0 13 -8 19 -17z m-10094 -1033 c3 -11 -16 -108 -44
-217 -28 -109 -59 -247 -70 -308 -11 -60 -31 -166 -45 -235 -26 -132 -56 -367
-56 -436 0 -23 -5 -55 -11 -72 -9 -27 -20 -34 -72 -51 -34 -10 -89 -24 -122
-31 -55 -11 -272 -92 -327 -121 -12 -7 -37 -14 -54 -16 -29 -3 -31 -1 -26 24
7 39 263 676 340 848 141 315 127 294 305 473 89 89 165 162 169 162 4 0 9 -9
13 -20z m4561 -343 c-56 -99 -94 -147 -117 -147 -11 0 -17 5 -14 10 3 6 1 10
-5 10 -6 0 -1 15 11 33 30 42 151 168 157 163 2 -3 -12 -33 -32 -69z m-2436
-102 c0 -9 -60 -76 -132 -150 l-133 -134 -65 -6 c-36 -4 -112 -15 -170 -25
-58 -10 -106 -17 -108 -15 -12 11 271 187 453 281 124 65 155 75 155 49z
m3580 -98 c0 -16 -46 -197 -66 -259 -8 -25 -21 -49 -29 -52 -8 -3 -42 21 -82
56 -75 67 -89 86 -77 98 24 21 239 170 246 170 4 0 8 -6 8 -13z m3605 -96 c19
-8 19 -8 0 -18 -34 -18 -96 -23 -146 -12 -27 6 -49 15 -49 19 0 15 161 24 195
11z m8369 -53 c91 -223 192 -521 233 -688 83 -348 190 -888 213 -1080 11 -92
23 -174 70 -460 38 -236 66 -457 80 -635 6 -77 15 -196 21 -265 40 -467 22
-1255 -37 -1627 -8 -51 -19 -134 -24 -185 -18 -192 -83 -638 -95 -658 -2 -3
-11 -47 -19 -97 -16 -90 -31 -146 -127 -483 -63 -217 -95 -310 -114 -330 -14
-13 -15 -11 -9 20 3 19 14 62 24 95 10 33 23 96 30 140 6 44 25 132 41 195 61
246 108 491 129 680 6 58 18 141 26 185 44 251 57 727 28 1090 -20 253 -21
245 49 245 52 0 48 22 -12 59 -28 16 -55 39 -61 51 -6 11 -15 98 -20 193 -13
240 -29 462 -35 489 -2 13 -12 93 -20 178 -9 85 -24 211 -35 280 -10 69 -26
186 -35 260 -9 74 -25 187 -35 250 -11 63 -26 171 -35 239 -8 68 -30 217 -49
330 -19 113 -49 303 -66 421 -18 118 -40 240 -50 270 -9 30 -20 84 -24 120 -7
64 -51 287 -80 410 -9 36 -16 92 -16 126 0 95 12 244 20 244 4 0 19 -28 34
-62z m-7554 40 c24 -9 24 -10 6 -24 -25 -18 -66 -17 -90 1 -11 8 -16 15 -10
15 5 0 2 4 -6 10 -20 12 66 11 100 -2z m-1410 -104 c-89 -90 -216 -205 -264
-239 -15 -11 -35 -26 -43 -34 -7 -7 -17 -11 -20 -7 -16 16 367 365 402 366 5
0 -29 -39 -75 -86z m1953 65 c20 -11 20 -12 2 -25 -28 -21 -204 -19 -211 1 -4
8 0 23 7 31 11 14 27 16 97 10 46 -3 93 -11 105 -17z m-1509 -58 c4 -5 2 -21
-4 -36 -7 -19 -16 -26 -32 -23 -26 3 -35 32 -18 53 14 17 46 20 54 6z m456
-14 c0 -36 -68 -87 -117 -87 -12 0 -3 15 32 50 47 48 85 64 85 37z m-290 -26
c0 -15 -49 -67 -50 -53 0 7 -4 10 -10 7 -15 -9 -12 8 6 33 15 22 54 31 54 13z
m1124 -7 c24 -9 20 -20 -25 -69 -44 -48 -63 -54 -94 -31 -19 13 -17 16 26 60
46 45 62 52 93 40z m-5081 -19 c-3 -9 -8 -14 -10 -11 -3 3 -2 9 2 15 9 16 15
13 8 -4z m5547 -39 c0 -21 -111 -116 -136 -116 -12 0 -27 7 -34 15 -10 12 -7
20 19 42 65 57 151 91 151 59z m-304 -13 c-5 -15 -4 -15 9 1 13 17 15 17 15 4
0 -9 -5 -20 -10 -23 -6 -4 -8 -10 -5 -15 7 -11 -22 -33 -34 -25 -13 8 -9 38 8
59 18 21 25 20 17 -1z m-5165 -124 c90 -59 141 -99 144 -113 3 -11 2 -41 -3
-66 -11 -66 -38 -62 -78 14 -29 54 -38 62 -114 101 -99 52 -130 80 -130 115 0
61 19 55 181 -51z m4029 55 c32 -31 -50 -82 -112 -69 -34 8 -36 25 -5 52 49
44 83 49 117 17z m-282 -18 c1 -13 -8 -32 -19 -42 -20 -18 -21 -18 -35 1 -19
25 -18 52 2 63 25 14 50 4 52 -22z m514 -1 c-5 -24 -31 -55 -47 -55 -7 0 -18
7 -25 15 -9 11 -7 19 14 40 30 30 63 30 58 0z m-795 -10 c8 -22 -25 -55 -52
-53 -25 2 -24 19 3 51 19 21 41 22 49 2z m1223 -5 c0 -11 -40 -50 -51 -50 -20
0 -20 25 1 42 24 19 50 24 50 8z m580 -60 c0 -5 -13 -16 -30 -25 l-30 -15 12
25 c11 24 48 36 48 15z m-1396 -46 c26 -10 18 -32 -21 -59 -41 -27 -83 -33
-83 -11 0 17 59 76 76 76 7 0 19 -3 28 -6z m-504 -29 c14 -17 -28 -68 -70 -85
-30 -12 -80 -7 -80 9 0 15 43 63 72 81 31 19 60 17 78 -5z m1235 14 c13 -20
-5 -59 -30 -65 -62 -15 -107 24 -66 58 25 20 86 25 96 7z m-1090 -60 c0 -20
-6 -25 -32 -27 -39 -4 -41 3 -11 35 26 28 43 25 43 -8z m-5016 -36 c20 -17 21
-19 6 -40 -21 -29 -59 -30 -79 -1 -21 30 -20 37 7 48 33 13 42 12 66 -7z m962
-41 c31 -19 31 -20 11 -31 -35 -18 -152 25 -136 51 10 16 89 3 125 -20z
m-1408 -9 l42 -28 -70 -3 c-111 -5 -144 11 -87 42 40 22 67 19 115 -11z m4747
13 c0 -2 -8 -10 -17 -17 -16 -13 -17 -12 -4 4 13 16 21 21 21 13z m-3033 -27
c17 -6 37 -17 45 -26 12 -15 9 -16 -22 -10 -103 18 -110 21 -110 43 0 15 18
13 87 -7z m3434 -5 c11 -14 10 -19 -9 -35 -23 -18 -52 -16 -52 3 0 18 21 48
34 48 8 0 20 -7 27 -16z m3444 -23 c77 -6 176 -15 220 -21 44 -5 168 -17 275
-25 214 -16 699 -83 880 -120 63 -13 135 -26 160 -30 94 -13 429 -88 517 -116
95 -30 133 -59 133 -101 0 -31 -22 -30 -92 1 -37 17 -99 40 -140 51 -104 30
-378 87 -478 100 -47 6 -161 26 -255 44 -93 19 -197 37 -230 40 -33 4 -148 18
-255 31 -546 67 -1503 106 -1855 75 -60 -5 -200 -14 -310 -19 -199 -11 -378
-28 -777 -75 -197 -24 -317 -43 -530 -86 -53 -11 -103 -20 -111 -20 -21 0 -44
59 -28 70 7 4 74 17 149 29 76 12 166 28 202 36 36 7 103 19 150 24 47 6 112
15 145 21 138 21 497 58 795 80 74 6 180 15 235 20 127 11 1014 4 1200 -9z
m-6614 -7 c47 -24 31 -39 -37 -36 -66 3 -84 13 -64 37 16 19 63 19 101 -1z
m2714 4 c12 11 -15 -39 -46 -85 -16 -23 -29 -46 -29 -51 0 -6 16 -24 36 -42
l36 -31 227 1 c316 2 327 2 315 -10 -5 -5 -59 -23 -119 -39 -175 -46 -344
-108 -420 -155 -38 -23 -92 -55 -120 -71 -82 -47 -251 -210 -315 -305 -78
-116 -107 -176 -134 -277 -12 -48 -30 -91 -38 -97 -16 -9 -362 15 -373 26 -3
3 2 49 10 104 8 54 15 122 15 149 1 81 29 127 163 260 131 131 231 220 397
356 116 94 168 129 195 129 9 0 48 30 86 66 48 47 73 65 85 60 15 -6 15 -4 3
11 -12 16 -12 17 2 6 9 -7 19 -9 24 -5z m-6656 -14 c9 -8 -11 -53 -26 -59 -25
-10 -218 -35 -281 -36 -63 -2 -77 8 -63 44 12 32 19 34 176 48 72 6 132 13
134 15 4 4 53 -6 60 -12z m6845 -10 c15 -39 6 -62 -26 -73 -50 -15 -100 -18
-105 -4 -2 6 14 30 36 52 43 43 84 54 95 25z m-7314 -48 c0 -13 -7 -29 -15
-36 -17 -14 -269 -43 -297 -34 -10 3 -18 9 -18 14 0 18 62 59 98 65 20 4 44 8
52 10 8 1 52 3 98 4 80 1 82 0 82 -23z m2316 14 c43 -5 144 -16 224 -26 150
-17 210 -33 210 -57 0 -7 -11 -19 -24 -26 -19 -11 -52 -9 -187 8 -90 11 -226
27 -302 36 -139 16 -187 27 -187 44 0 28 125 38 266 21z m8734 -89 c63 -6 201
-18 305 -26 266 -22 748 -85 1080 -140 261 -43 686 -151 726 -185 27 -21 69
-150 133 -405 93 -369 171 -877 186 -1214 16 -356 12 -553 -16 -874 -6 -65 -5
-70 21 -97 l27 -29 -39 -38 c-29 -29 -42 -50 -47 -81 -6 -38 -23 -59 -179
-215 -177 -177 -300 -273 -446 -346 -113 -57 -319 -129 -505 -177 -254 -65
-240 -62 -391 -79 -76 -8 -163 -22 -194 -30 -91 -23 -588 -83 -841 -101 -368
-25 -853 -27 -1155 -3 -258 20 -293 24 -580 58 -514 62 -1035 217 -1302 387
-87 55 -270 194 -345 260 -116 104 -342 368 -427 499 -24 38 -64 114 -87 170
-24 55 -56 125 -73 156 -58 105 -118 299 -105 334 3 7 21 21 40 31 19 10 34
23 34 28 0 5 -11 37 -24 70 -34 86 -85 370 -102 571 -15 179 -7 403 17 503 47
193 247 410 488 532 143 72 367 142 606 191 55 11 128 26 163 34 72 15 64 23
112 -101 29 -76 62 -124 86 -124 24 0 23 32 -5 108 -16 42 -32 91 -35 109 -7
29 -5 32 26 42 43 14 244 47 438 72 85 11 173 24 195 29 22 5 110 16 195 25
85 9 185 20 222 25 37 6 156 15 265 21 109 6 239 15 288 19 122 11 1102 4
1245 -9z m-10710 -16 c0 -3 -11 -27 -24 -53 -45 -90 -155 -398 -201 -562 -57
-207 -130 -594 -145 -765 -17 -210 -22 -221 -59 -147 -34 67 -46 174 -45 392
2 231 16 365 70 630 35 175 114 464 133 483 14 14 271 35 271 22z m1800 -20
c275 -29 525 -58 528 -60 2 -2 -55 -81 -126 -178 -180 -244 -267 -423 -318
-657 -21 -95 -29 -357 -15 -461 12 -83 39 -149 61 -149 18 0 32 54 26 102 -10
70 8 155 67 338 40 122 70 194 116 275 92 162 200 320 284 416 101 115 253
259 273 259 9 0 42 -7 73 -15 31 -8 151 -33 266 -55 650 -128 865 -213 1085
-432 171 -170 232 -302 229 -493 0 -55 2 -166 6 -248 9 -174 -5 -327 -42 -484
-39 -168 -39 -161 -9 -192 27 -28 27 -30 16 -89 -6 -34 -26 -94 -44 -134 -18
-40 -51 -118 -74 -173 -22 -55 -86 -193 -141 -307 -93 -191 -108 -215 -193
-315 -282 -331 -521 -510 -883 -660 -203 -84 -550 -175 -815 -213 -502 -73
-743 -92 -1220 -98 -456 -5 -736 9 -1085 53 -60 8 -162 19 -225 25 -63 6 -164
24 -225 39 -60 16 -153 37 -205 46 -143 24 -532 123 -640 162 -232 83 -397
188 -586 375 l-141 139 -6 55 c-4 35 -23 92 -57 164 -52 113 -152 402 -190
550 -35 135 -107 497 -119 595 -20 164 -41 419 -41 499 0 90 41 304 101 531
45 168 61 197 171 292 147 129 243 180 452 242 185 56 201 59 210 35 11 -28 6
-148 -9 -219 -34 -159 -67 -525 -68 -740 0 -156 13 -361 34 -518 10 -81 72
-275 113 -356 27 -52 125 -192 164 -234 48 -51 167 -137 200 -143 29 -6 32 -4
32 18 0 14 -13 36 -31 54 -33 30 -144 247 -174 339 -34 102 -44 303 -24 470
19 159 92 421 168 596 157 364 207 466 341 689 121 201 126 208 167 220 45 12
333 43 341 36 2 -3 -12 -61 -33 -128 -51 -166 -69 -240 -112 -463 l-37 -190 0
-280 c-1 -309 7 -366 66 -492 23 -50 38 -68 73 -89 48 -28 45 -19 64 -172 6
-45 16 -92 22 -103 10 -20 12 -20 27 -5 14 13 16 50 17 258 0 293 0 292 143
503 156 231 277 362 463 504 46 36 104 80 128 99 25 18 76 50 115 69 39 20 96
52 126 73 86 58 597 314 668 335 22 6 23 5 11 -17 -6 -12 -46 -70 -88 -128
-248 -340 -446 -708 -544 -1011 -72 -222 -86 -282 -93 -377 -6 -91 3 -129 37
-154 46 -35 55 -19 67 120 7 70 20 154 30 187 53 169 163 446 228 575 123 241
460 749 597 898 14 15 29 21 42 18 11 -3 85 -12 165 -21z m2143 -6 c146 -12
195 -24 199 -46 2 -8 2 -78 0 -154 l-3 -138 -92 58 c-158 100 -208 120 -487
201 -80 24 -156 48 -170 56 -22 12 -15 13 70 14 52 1 118 5 145 10 76 11 203
11 338 -1z m-783 -59 c421 -93 565 -136 735 -220 167 -82 226 -124 336 -237
149 -154 197 -235 249 -423 18 -63 36 -119 40 -124 5 -5 68 -2 147 8 396 46
831 50 1265 11 156 -14 288 -27 294 -29 23 -8 33 12 44 93 20 145 68 251 178
389 110 139 298 276 493 358 126 53 405 133 579 165 85 16 160 29 167 29 18 0
27 -40 12 -55 -8 -7 -108 -33 -224 -59 -253 -57 -508 -140 -622 -203 -234
-127 -420 -320 -472 -488 -52 -166 -65 -396 -38 -650 23 -221 32 -269 68 -393
16 -56 27 -107 24 -112 -3 -6 -22 -10 -40 -10 -38 0 -29 -20 -90 200 -24 88
-42 277 -44 477 -1 41 -1 41 -48 52 -171 39 -605 65 -988 58 -312 -5 -619 -33
-689 -61 l-28 -11 -4 -125 c-6 -158 -16 -220 -60 -367 -39 -128 -61 -174 -74
-153 -9 15 -9 20 24 221 37 234 49 377 37 445 -6 32 -11 97 -11 145 0 165 -38
296 -118 409 -108 153 -246 269 -429 363 -183 94 -370 150 -818 248 -99 21
-202 45 -230 52 l-49 13 24 18 c36 26 135 16 360 -34z m-4741 -8 c6 -10 6 -24
1 -32 -5 -8 -83 -32 -177 -55 -276 -68 -460 -164 -628 -327 -44 -43 -80 -78
-81 -78 -6 0 25 109 37 131 28 51 174 161 294 221 89 45 244 98 368 127 149
35 173 37 186 13z m-640 -56 c6 -7 9 -20 6 -27 -5 -13 -68 -59 -80 -59 -10 0
-5 30 12 65 17 36 42 45 62 21z m7920 -1182 c3 -2 -1 -73 -7 -157 -15 -188
-17 -1703 -2 -1922 5 -82 14 -240 21 -350 6 -110 15 -240 20 -290 5 -49 14
-213 21 -363 13 -294 21 -335 53 -272 15 29 17 50 12 135 -22 357 -27 467 -37
785 -6 195 -15 429 -20 520 -5 91 -10 467 -9 835 0 668 9 1060 25 1075 10 9
307 -23 366 -40 42 -12 44 -15 53 -131 6 -85 4 -89 -57 -108 -78 -25 -146
-144 -155 -272 -7 -80 4 -120 102 -374 40 -104 76 -201 80 -215 14 -48 67
-145 104 -190 88 -110 158 -155 258 -166 107 -11 114 -16 199 -132 140 -190
325 -390 449 -485 44 -33 95 -73 113 -88 37 -32 294 -187 362 -218 153 -70
430 -160 603 -197 86 -18 503 -89 612 -104 44 -6 181 -20 305 -32 277 -26
1007 -37 1240 -19 80 6 231 18 335 26 105 8 264 26 355 40 353 53 488 76 596
101 63 13 155 32 205 40 258 41 608 179 790 311 76 54 259 226 259 242 0 5 16
21 37 37 l36 27 -6 -49 c-7 -65 -152 -470 -215 -604 -52 -111 -146 -273 -219
-378 -48 -71 -261 -312 -274 -312 -17 0 -31 -41 -18 -56 21 -25 50 -15 148 53
133 92 177 131 273 240 170 195 312 396 493 698 165 276 228 401 390 775 55
127 57 132 69 120 6 -6 3 -58 -12 -157 -12 -82 -24 -193 -28 -248 -3 -55 -17
-149 -30 -210 -13 -60 -35 -171 -49 -245 -14 -74 -41 -198 -59 -275 -19 -77
-48 -194 -64 -260 -56 -236 -174 -659 -243 -870 -21 -66 -50 -158 -63 -205
-13 -47 -54 -170 -91 -275 -36 -104 -79 -230 -94 -280 -16 -49 -43 -124 -60
-167 -36 -88 -40 -128 -13 -128 26 0 36 10 66 66 15 28 59 87 97 130 135 152
239 307 415 614 21 36 50 83 64 105 15 22 59 102 98 177 63 123 105 194 123
208 11 8 46 83 59 125 18 57 79 175 90 175 5 0 28 -37 51 -81 34 -65 52 -88
88 -110 100 -64 168 -18 269 186 50 100 97 242 152 461 7 28 18 44 35 52 55
25 58 20 51 -75 -12 -147 -56 -434 -72 -465 -8 -16 -32 -56 -54 -89 -66 -102
-94 -199 -57 -199 34 0 271 326 392 540 26 47 67 112 90 145 23 33 58 90 78
127 21 37 44 74 53 82 19 20 137 22 151 4 6 -7 13 -36 16 -64 3 -28 17 -91 31
-140 47 -166 66 -317 88 -709 13 -241 1 -468 -32 -595 -23 -86 -25 -131 -8
-148 37 -37 73 14 107 153 11 44 36 141 56 215 50 190 104 457 116 575 36 379
24 523 -54 612 -86 97 -241 184 -342 191 -33 2 -63 7 -68 11 -4 4 22 57 57
119 35 61 76 136 90 167 14 30 28 55 31 55 39 0 143 -105 264 -267 94 -127
153 -227 182 -308 20 -56 20 -67 9 -220 -6 -88 -18 -196 -26 -240 -7 -44 -25
-153 -39 -243 -40 -264 -157 -793 -220 -1002 -13 -41 -57 -190 -99 -330 -76
-257 -197 -601 -256 -729 -35 -75 -102 -145 -540 -561 -236 -223 -517 -511
-640 -655 -47 -55 -136 -158 -197 -230 -131 -155 -323 -342 -396 -389 -104
-66 -236 -108 -410 -131 -147 -19 -225 -19 -348 0 -122 18 -193 44 -197 71 -3
18 15 72 124 374 19 52 52 138 73 190 74 182 94 268 70 311 -10 19 -12 19 -28
4 -23 -20 -70 -122 -126 -272 -24 -65 -64 -172 -90 -238 -80 -208 -152 -407
-175 -485 -12 -41 -41 -127 -65 -190 -24 -63 -55 -149 -68 -190 -14 -41 -55
-156 -92 -255 -91 -247 -140 -391 -305 -890 -78 -236 -153 -458 -166 -492 -14
-34 -35 -104 -48 -156 -28 -114 -23 -103 -164 -317 -175 -264 -249 -357 -452
-565 -102 -105 -278 -287 -391 -405 -113 -118 -432 -440 -710 -714 -568 -563
-870 -848 -1270 -1202 -63 -56 -152 -134 -198 -175 -236 -209 -770 -642 -987
-801 -143 -104 -364 -233 -478 -277 -222 -87 -458 -133 -986 -192 -163 -18
-230 -21 -405 -16 -455 12 -1014 103 -1261 206 -129 53 -311 157 -440 251
-134 98 -503 388 -659 519 -488 409 -716 614 -1265 1137 -517 493 -998 967
-1436 1419 -326 336 -402 422 -534 600 -198 268 -269 389 -304 518 -23 82
-245 746 -341 1017 -21 58 -84 240 -140 405 -57 165 -137 395 -178 510 -41
116 -105 293 -140 395 -36 102 -77 211 -91 242 -14 31 -36 89 -49 130 -58 176
-234 608 -260 635 -11 13 -29 23 -39 23 -18 0 -19 -5 -12 -57 7 -59 41 -161
154 -463 77 -204 168 -454 183 -498 13 -41 2 -53 -68 -76 -88 -28 -196 -40
-355 -40 -200 0 -285 21 -481 121 -78 39 -101 59 -265 226 -99 100 -265 281
-369 402 -196 226 -614 652 -856 871 -166 150 -263 254 -306 325 -49 83 -246
621 -303 830 -16 58 -40 139 -54 180 -28 83 -87 336 -111 475 -8 50 -20 106
-26 123 -10 28 -8 36 15 69 25 36 64 68 72 59 3 -2 16 -55 30 -118 35 -160 80
-302 105 -333 14 -17 29 -26 43 -24 19 3 21 9 19 59 -1 31 -9 85 -18 120 -17
63 -37 414 -27 466 2 13 36 58 75 101 65 72 241 327 335 487 22 39 70 126 104
195 38 74 70 125 78 125 27 0 140 -247 140 -305 0 -47 -24 -95 -90 -177 -46
-58 -60 -83 -60 -109 0 -29 4 -34 33 -39 17 -4 76 -2 129 4 160 16 254 71 294
172 9 21 20 39 25 39 4 0 41 -39 81 -87 102 -124 217 -252 323 -363 58 -60
129 -151 193 -246 56 -84 147 -203 202 -265 71 -82 114 -142 151 -212 32 -60
75 -124 113 -165 51 -55 80 -104 166 -276 101 -199 156 -286 185 -286 33 0 33
80 -1 196 -19 65 -24 102 -20 137 4 41 0 59 -25 109 -28 55 -68 189 -74 248
-6 52 -86 402 -121 526 -20 71 -40 147 -45 169 -26 118 -93 427 -134 620 -26
121 -65 290 -87 375 -45 179 -108 470 -108 503 0 13 -23 104 -50 203 -50 177
-90 377 -90 447 0 26 5 37 18 39 22 5 40 -20 114 -167 77 -152 172 -302 302
-474 113 -151 153 -194 300 -319 91 -79 334 -249 379 -265 20 -8 47 1 47 15 0
6 -26 38 -57 72 -83 89 -163 191 -211 269 -23 37 -40 67 -37 67 3 0 27 -16 54
-35 127 -91 394 -193 686 -260 312 -72 362 -83 545 -114 322 -54 558 -81 960
-107 304 -20 897 -15 1120 10 74 8 194 20 265 26 72 6 198 22 280 36 83 14
206 34 275 45 69 10 149 26 179 35 29 8 119 33 200 54 174 45 407 137 552 215
195 106 309 195 517 400 182 178 199 198 277 325 l84 135 118 0 c137 0 163 9
248 87 101 92 110 110 262 553 63 180 66 195 66 285 1 85 -2 101 -27 152 -42
84 -77 120 -149 156 -36 17 -67 35 -70 39 -2 5 1 48 7 97 11 88 12 90 41 97
46 10 396 40 515 43 125 4 543 -4 549 -10z m10415 -1766 c18 -30 -8 -209 -37
-259 -14 -24 -40 -87 -57 -139 -46 -141 -68 -144 -35 -5 8 33 26 130 41 215
33 195 54 241 88 188z m-1558 -465 c-7 -219 -13 -303 -25 -321 -3 -6 -56 -26
-116 -45 -61 -18 -158 -49 -217 -67 -60 -18 -110 -31 -113 -29 -2 3 40 116 94
252 55 135 105 263 111 284 16 50 28 63 70 81 49 22 151 50 179 51 l24 1 -7
-207z m-18128 155 c5 -7 20 -47 32 -88 67 -230 206 -624 268 -756 79 -170 85
-187 73 -182 -26 9 -446 435 -529 536 l-43 51 35 68 c18 37 50 127 71 198 50
174 66 205 93 173z m-768 -80 c0 -13 -9 -72 -20 -133 -11 -60 -22 -137 -26
-170 -7 -67 -7 -67 -147 -175 -152 -118 -162 -149 -152 -489 3 -130 7 -270 8
-311 2 -61 -2 -84 -22 -123 -13 -26 -28 -46 -35 -44 -25 8 -62 258 -90 609
-15 181 -15 190 4 250 11 35 36 90 56 123 20 33 44 76 55 97 46 89 235 310
308 358 53 36 61 37 61 8z m20313 -158 c-6 -23 -23 -27 -23 -5 0 8 5 15 11 15
5 0 7 5 3 12 -4 6 -3 8 4 5 5 -4 8 -16 5 -27z m-17 -47 c-6 -19 -39 -143 -106
-392 -41 -154 -77 -240 -124 -296 l-25 -30 -1 45 c0 65 14 109 85 260 35 74
85 201 112 282 26 82 52 148 56 148 5 0 6 -8 3 -17z m-21192 -1958 c86 -112
280 -338 310 -362 12 -10 49 -42 82 -71 l59 -53 -68 30 c-95 43 -187 106 -306
212 -107 95 -169 169 -193 234 -25 64 -54 229 -49 270 1 6 23 -30 49 -80 26
-49 78 -130 116 -180z"/>
<path d="M4819 10825 c-128 -16 -236 -42 -344 -84 -117 -46 -166 -86 -207
-168 -32 -65 -33 -72 -32 -178 0 -60 5 -146 11 -190 6 -44 18 -141 27 -215 10
-74 26 -191 36 -260 11 -69 27 -177 35 -240 28 -208 32 -213 184 -265 122 -41
357 -154 461 -223 41 -27 125 -89 185 -139 143 -116 142 -116 191 -94 45 21
60 36 117 122 34 50 62 76 137 127 91 61 110 77 110 96 0 4 -76 83 -168 175
-182 179 -218 231 -243 349 -26 124 20 446 92 652 17 47 39 113 51 148 33 101
7 143 -53 86 -31 -30 -45 -26 -54 14 -7 34 -141 169 -233 236 -97 70 -119 73
-303 51z m-94 -269 c188 -49 265 -77 361 -131 84 -47 194 -149 194 -180 0 -13
-14 -77 -31 -142 -23 -91 -33 -155 -40 -281 -11 -179 -5 -237 36 -327 34 -76
134 -191 267 -308 32 -28 58 -56 58 -63 0 -8 -24 -29 -53 -47 -59 -38 -130
-113 -159 -170 l-19 -38 -56 51 c-136 124 -398 277 -626 365 -87 34 -166 68
-176 77 -13 11 -21 37 -26 84 -3 38 -26 206 -51 374 -55 381 -77 613 -64 659
9 33 50 94 80 119 24 20 117 8 305 -42z"/>
<path d="M21869 10801 c-213 -114 -249 -141 -294 -218 -28 -47 -50 -58 -89
-43 -15 5 -31 10 -36 10 -5 0 13 -64 40 -142 95 -279 127 -417 137 -588 6
-115 -7 -219 -36 -285 -22 -50 -188 -234 -269 -299 -67 -53 -117 -118 -109
-140 3 -8 51 -44 107 -81 72 -47 111 -81 134 -114 17 -25 47 -63 67 -83 33
-34 42 -38 88 -38 47 0 56 4 99 43 180 164 412 298 671 389 47 16 105 40 127
54 61 35 68 56 103 324 6 41 22 149 35 240 42 279 58 454 55 578 -4 104 -7
123 -32 174 -15 31 -43 68 -62 83 -114 86 -401 165 -606 165 -66 0 -85 -4
-130 -29z m702 -253 l34 -42 -1 -116 c-1 -75 -14 -198 -37 -355 -20 -132 -48
-330 -62 -440 -14 -110 -32 -210 -40 -221 -9 -14 -66 -42 -157 -78 -240 -96
-458 -219 -597 -337 -35 -30 -77 -64 -92 -77 l-28 -23 -35 68 c-36 72 -71 110
-148 162 -27 18 -48 36 -48 41 0 5 13 19 29 32 216 175 297 279 336 429 26 96
16 291 -24 479 -40 190 -40 201 7 250 53 56 224 157 307 181 39 12 105 32 148
45 104 32 134 31 212 -11 77 -41 95 -38 95 15 0 63 7 72 40 55 15 -8 43 -34
61 -57z"/>
<path d="M13980 10051 c-112 -35 -309 -189 -326 -256 -10 -41 1 -56 43 -54 27
1 58 -9 108 -35 83 -43 145 -57 145 -32 0 9 -16 34 -36 56 -20 22 -35 42 -33
44 6 6 204 26 254 26 24 0 66 -7 92 -16 63 -21 213 -97 277 -140 38 -26 61
-34 94 -34 64 0 63 19 -4 103 -115 144 -233 236 -386 301 -109 47 -166 56
-228 37z"/>
<path d="M12865 10035 c-59 -30 -328 -256 -382 -321 -21 -26 -64 -74 -95 -107
-32 -32 -58 -62 -58 -67 0 -19 35 -33 107 -41 87 -11 123 -6 123 17 0 16 -38
76 -52 82 -12 5 12 34 67 82 28 24 96 86 153 139 130 121 195 164 239 157 34
-5 128 -58 232 -132 35 -25 69 -43 75 -41 23 8 15 34 -25 82 -110 133 -282
200 -384 150z"/>
<path d="M3822 9708 c-20 -20 -14 -37 43 -138 33 -60 73 -153 104 -243 50
-149 83 -207 132 -232 23 -12 29 -12 38 -1 9 11 5 24 -18 58 -22 31 -40 82
-66 188 -41 170 -77 249 -147 325 -52 57 -65 64 -86 43z"/>
<path d="M23083 9709 c-27 -10 -96 -96 -129 -160 -13 -26 -40 -110 -60 -186
-22 -86 -50 -163 -72 -205 -20 -37 -33 -70 -30 -74 14 -13 84 44 116 93 17 26
45 91 62 143 17 52 60 154 96 225 35 72 64 137 64 146 0 21 -19 29 -47 18z"/>
<path d="M4361 8961 c-23 -15 -2 -50 52 -85 29 -18 88 -56 132 -84 118 -75
204 -113 227 -101 28 15 22 45 -17 77 -39 32 -325 189 -359 197 -11 3 -27 1
-35 -4z"/>
<path d="M22435 8913 c-44 -25 -121 -70 -172 -100 -111 -67 -163 -86 -209 -77
-44 8 -67 -9 -59 -46 5 -24 1 -29 -35 -45 -36 -16 -72 -45 -56 -45 3 0 28 14
54 30 27 17 57 30 67 30 40 0 212 53 276 86 66 33 173 98 263 160 38 25 39 27
21 40 -32 23 -67 16 -150 -33z"/>
<path d="M13603 6685 c-27 -19 -30 -56 -5 -77 9 -9 47 -18 87 -22 39 -3 129
-13 200 -21 72 -8 222 -22 335 -30 222 -17 510 -52 691 -84 63 -11 195 -32
294 -46 99 -14 221 -35 270 -46 50 -10 193 -39 320 -64 224 -44 235 -45 420
-45 104 0 223 5 262 10 68 9 173 50 173 68 0 16 -72 178 -87 194 -26 28 -144
69 -233 81 -97 12 -206 -1 -467 -53 -143 -29 -232 -37 -246 -23 -4 4 -26 8
-50 10 -23 2 -84 13 -135 23 -89 19 -527 81 -722 101 -52 6 -126 15 -165 20
-38 6 -261 13 -495 16 -382 4 -427 3 -447 -12z"/>
<path d="M12780 6659 c-118 -4 -273 -12 -345 -19 -71 -6 -188 -15 -260 -20
-246 -18 -549 -43 -735 -60 -150 -14 -317 -40 -419 -66 -51 -13 -113 -24 -137
-24 -24 0 -135 16 -247 35 -338 58 -393 57 -438 -6 -18 -26 -19 -33 -9 -65 17
-50 77 -107 130 -123 25 -7 110 -17 190 -22 87 -4 162 -14 189 -23 60 -22 132
-20 307 9 82 13 206 31 274 40 69 9 143 20 165 25 143 31 863 127 1235 164
140 15 314 35 385 46 72 11 149 20 173 20 41 0 112 22 112 35 0 19 -24 44 -51
54 -35 12 -183 12 -519 0z m-2365 -229 c2 -4 -6 -12 -18 -17 -17 -8 -32 -7
-58 4 -34 16 -34 16 -9 22 28 8 78 2 85 -9z"/>
<path d="M4005 24739 c-33 -11 -101 -31 -151 -44 -50 -14 -106 -31 -125 -39
-19 -7 -83 -19 -144 -25 -60 -7 -148 -19 -195 -26 -94 -16 -300 -23 -319 -11
-15 10 -64 -1 -57 -13 3 -4 20 -8 37 -9 18 0 64 -6 103 -13 75 -12 271 -7 361
10 28 5 79 11 115 12 54 2 65 0 62 -13 -2 -14 2 -14 33 2 20 10 41 22 48 27
15 12 175 73 189 73 5 0 23 11 40 25 16 14 40 25 53 25 34 0 55 10 55 26 0 19
-33 17 -105 -7z"/>
<path d="M2955 24600 c3 -5 13 -10 21 -10 8 0 14 5 14 10 0 6 -9 10 -21 10
-11 0 -17 -4 -14 -10z"/>
<path d="M3593 24033 c-38 -38 -74 -80 -81 -95 -6 -16 -16 -28 -21 -28 -6 0
-16 -10 -22 -22 -10 -20 -6 -18 22 7 18 17 43 42 57 58 13 15 30 27 38 27 8 0
20 11 26 25 6 14 16 25 22 25 7 0 19 13 29 29 32 55 -1 42 -70 -26z"/>
<path d="M23165 24020 c-19 -7 -19 -7 2 -14 13 -4 27 -4 33 -1 5 3 10 2 10 -4
0 -18 98 -41 147 -34 48 6 41 23 -10 23 -15 0 -38 6 -50 14 -27 17 -105 27
-132 16z"/>
<path d="M3388 23796 c-19 -19 -38 -41 -41 -50 -4 -9 -13 -16 -21 -16 -8 0
-24 -12 -35 -26 -12 -15 -21 -23 -21 -18 0 4 -10 -5 -22 -22 -13 -16 -35 -42
-50 -57 -27 -29 -106 -144 -127 -185 -7 -12 -16 -20 -20 -17 -5 3 -12 -6 -15
-20 -4 -14 -11 -25 -16 -25 -6 0 -10 -7 -10 -16 0 -9 18 3 48 33 40 41 80 88
217 258 65 82 85 108 85 116 0 5 7 9 16 9 8 0 12 5 9 10 -3 6 -3 10 2 10 8 1
48 50 40 50 -2 0 -20 -15 -39 -34z"/>
<path d="M22910 22837 c0 -9 22 -42 50 -74 27 -32 50 -62 50 -68 0 -33 56
-114 100 -145 27 -19 50 -38 50 -41 0 -6 270 -279 276 -279 18 0 -6 51 -56
121 -33 46 -56 85 -51 87 5 2 47 -17 93 -42 47 -26 93 -46 104 -47 10 0 33 -9
49 -19 17 -11 44 -27 60 -36 17 -9 39 -24 50 -34 11 -10 40 -28 65 -41 25 -12
61 -35 80 -51 53 -43 53 -43 101 -73 24 -16 46 -31 49 -35 3 -4 19 -14 37 -23
17 -9 37 -22 45 -29 26 -26 177 -138 184 -138 4 0 20 -13 36 -30 15 -16 33
-30 39 -30 5 0 8 -4 5 -9 -7 -10 41 -44 52 -37 5 3 15 -4 22 -15 8 -10 22 -19
32 -19 10 0 18 -6 18 -12 0 -7 15 -25 33 -40 17 -15 54 -45 80 -67 50 -42 87
-66 87 -56 0 4 7 -1 16 -9 8 -9 23 -16 32 -16 13 0 14 2 4 9 -8 4 -14 12 -15
17 -1 5 -5 8 -9 7 -4 -2 -5 3 -2 11 3 8 -6 22 -21 33 -15 10 -52 38 -83 63
-31 25 -76 58 -100 73 -23 15 -40 32 -37 37 4 6 1 10 -5 10 -17 0 -61 36 -53
44 3 3 -3 6 -15 6 -11 0 -25 6 -29 13 -4 6 -21 19 -38 27 -16 8 -39 23 -49 33
-11 9 -23 17 -28 17 -4 0 -7 4 -5 8 3 10 -67 72 -80 72 -6 0 -23 12 -39 27
-29 28 -122 93 -131 93 -5 0 -103 69 -113 80 -3 3 -22 14 -44 25 -21 11 -46
29 -55 40 -17 20 -45 38 -116 76 -22 11 -67 38 -100 59 -56 36 -204 113 -335
174 -30 14 -69 38 -86 53 -31 28 -94 106 -94 117 0 7 -88 90 -101 94 -5 2 -9
-3 -9 -11z"/>
<path d="M2402 22393 c-12 -15 -22 -31 -22 -36 0 -5 -13 -29 -30 -54 -16 -24
-30 -49 -30 -54 0 -6 -11 -25 -24 -42 -30 -41 -86 -143 -86 -157 0 -6 -13 -30
-28 -53 -15 -23 -43 -76 -61 -117 -18 -41 -46 -103 -62 -137 -16 -34 -29 -65
-29 -69 0 -8 -40 -95 -81 -175 -16 -31 -29 -63 -29 -70 0 -8 -14 -41 -30 -74
-16 -33 -30 -70 -30 -83 0 -12 -11 -44 -24 -71 -14 -27 -28 -72 -32 -102 -3
-30 -15 -69 -25 -87 -22 -38 -36 -112 -22 -112 5 0 16 23 23 50 8 28 20 56 27
62 7 6 13 16 13 23 0 7 12 37 26 67 36 75 49 104 74 176 13 34 27 65 31 68 5
3 9 14 9 24 0 11 27 75 60 144 33 69 60 128 60 132 0 4 14 37 31 73 17 36 41
89 54 116 68 150 184 388 224 462 16 28 30 67 33 87 2 20 3 36 3 36 -1 0 -11
-12 -23 -27z"/>
<path d="M23470 22161 c0 -9 9 -27 20 -39 11 -12 20 -24 20 -28 0 -3 23 -44
50 -91 28 -47 50 -88 50 -93 0 -4 7 -13 15 -20 8 -7 15 -20 15 -29 0 -10 11
-28 25 -41 14 -13 25 -28 25 -34 0 -6 16 -33 35 -60 19 -27 35 -54 35 -60 0
-5 10 -20 21 -32 12 -13 27 -32 33 -43 39 -68 79 -133 90 -144 7 -6 60 -109
120 -227 137 -274 168 -330 184 -330 14 0 6 42 -9 48 -4 2 -15 25 -24 52 -9
27 -47 109 -85 182 -38 73 -92 178 -120 233 -28 55 -66 127 -84 160 -19 33
-44 79 -55 103 -12 23 -25 42 -30 42 -5 0 -11 10 -15 23 -5 22 -59 100 -111
162 -14 16 -25 37 -25 47 0 10 -4 18 -9 18 -4 0 -21 19 -37 42 -16 23 -39 52
-51 64 -13 13 -23 30 -23 38 0 8 -13 28 -30 44 -24 24 -30 27 -30 13z"/>
<path d="M1681 20726 c-10 -24 -25 -61 -32 -81 -14 -39 -72 -103 -170 -190
-117 -103 -158 -138 -186 -156 -15 -10 -66 -46 -113 -80 -112 -82 -238 -169
-245 -169 -4 0 -21 -11 -38 -24 -18 -13 -72 -45 -122 -71 -49 -26 -97 -53
-106 -61 -8 -8 -23 -14 -32 -14 -9 0 -18 -4 -22 -10 -5 -8 -335 -174 -460
-231 -22 -10 -51 -25 -65 -33 -14 -8 -40 -21 -57 -28 -24 -9 -33 -19 -33 -35
0 -13 6 -23 13 -23 31 0 122 33 228 84 586 275 1417 856 1496 1044 12 28 16
32 29 21 13 -10 23 -4 64 36 28 27 50 53 50 58 0 4 -17 7 -37 5 -29 -2 -39 -8
-42 -23 -5 -29 -41 -49 -41 -24 0 13 -38 49 -51 49 -4 0 -17 -20 -28 -44z"/>
<path d="M24604 19722 c8 -21 29 -64 47 -96 75 -127 111 -194 140 -256 16 -36
34 -73 39 -82 6 -10 10 -25 10 -33 0 -8 4 -15 9 -15 5 0 13 -10 16 -22 4 -13
17 -45 30 -73 70 -152 83 -183 90 -214 4 -19 18 -57 31 -85 13 -28 24 -59 24
-68 0 -10 15 -49 34 -87 18 -38 36 -84 40 -103 3 -18 15 -41 26 -50 19 -17 19
-16 14 15 -10 59 -82 287 -95 302 -5 5 -9 17 -9 27 0 17 -5 31 -54 138 -13 31
-28 68 -31 83 -4 15 -11 27 -16 27 -5 0 -9 6 -9 13 -1 6 -9 30 -20 52 -11 22
-19 44 -20 49 0 5 -25 62 -56 125 -31 64 -64 132 -73 151 -9 19 -19 37 -22 40
-4 3 -15 21 -25 40 -38 69 -110 160 -127 160 -3 0 0 -17 7 -38z"/>
<path d="M1300 19661 c-5 -11 -20 -31 -33 -45 -12 -13 -37 -55 -56 -92 -43
-89 -57 -116 -99 -194 -56 -104 -162 -324 -162 -336 0 -2 -25 -56 -55 -119
-30 -64 -55 -118 -55 -121 0 -3 -11 -29 -24 -57 -13 -29 -40 -92 -60 -142 -21
-49 -45 -106 -53 -125 -36 -81 -103 -251 -103 -260 0 -6 -10 -27 -23 -48 -12
-20 -40 -89 -61 -152 -21 -63 -42 -123 -48 -133 -10 -20 -74 -195 -90 -246 -5
-19 -21 -58 -34 -87 -13 -29 -24 -63 -24 -76 0 -13 -4 -28 -9 -34 -6 -5 -14
-27 -20 -49 -27 -108 -35 -134 -56 -180 -13 -27 -30 -86 -39 -130 -9 -44 -23
-102 -31 -130 -8 -27 -17 -83 -21 -123 -4 -46 -13 -81 -25 -95 -9 -13 -25 -61
-33 -106 -20 -105 -20 -122 -1 -115 18 7 55 105 55 147 0 18 9 58 20 90 11 31
20 64 20 74 0 17 27 116 52 188 5 17 14 49 19 72 4 23 16 59 25 80 17 42 40
107 74 223 13 41 27 82 31 90 12 23 89 249 100 295 6 21 14 44 18 50 4 5 29
66 55 135 27 69 59 148 72 176 13 28 24 57 24 63 0 13 4 22 55 136 28 62 32
71 85 195 18 41 49 111 70 155 20 44 47 105 60 135 12 30 35 82 50 115 78 165
184 386 207 430 14 28 43 84 64 125 21 41 39 80 39 85 0 6 11 32 25 58 13 27
25 58 27 69 4 28 -18 34 -32 9z"/>
<path d="M23 16270 c-21 -17 -23 -26 -23 -127 1 -107 1 -108 19 -86 14 17 21
47 26 117 4 52 6 99 4 104 -2 6 -14 2 -26 -8z"/>
<path d="M23568 9224 c-22 -33 -21 -227 2 -264 18 -29 21 0 13 136 -4 77 -11
134 -15 128z"/>
<path d="M2740 8265 c0 -8 4 -15 10 -15 5 0 7 7 4 15 -4 8 -8 15 -10 15 -2 0
-4 -7 -4 -15z"/>
<path d="M2679 8128 c0 -2 -3 -16 -5 -33 -3 -16 -9 -34 -15 -39 -5 -6 -9 -15
-9 -20 0 -6 6 -2 14 9 15 22 31 85 22 85 -3 0 -6 -1 -7 -2z"/>
<path d="M22705 6793 c2 -98 8 -432 12 -743 5 -311 13 -573 17 -582 6 -14 46
-27 46 -15 0 1 5 29 11 62 13 75 12 795 -1 985 -12 167 -28 303 -41 355 -6 22
-13 52 -16 67 -3 15 -11 32 -19 39 -11 9 -12 -19 -9 -168z"/>
<path d="M3931 6338 c0 -366 -4 -591 -11 -643 -6 -44 -15 -109 -20 -145 -29
-225 -49 -328 -74 -385 -13 -28 -36 -115 -36 -134 0 -5 6 -11 14 -14 10 -4 22
11 39 46 42 90 57 127 57 145 0 9 11 49 24 89 14 39 28 100 31 135 4 35 13 81
21 103 35 104 54 620 34 955 -18 305 -24 353 -40 376 -40 54 -39 57 -39 -528z"/>
<path d="M5495 5383 c-15 -32 -31 -71 -36 -88 -19 -79 -105 -303 -144 -376
-14 -26 -25 -52 -25 -59 0 -7 -9 -25 -20 -41 -12 -15 -26 -43 -32 -60 -10 -28
-59 -118 -123 -225 -30 -49 -123 -182 -166 -237 -51 -65 -263 -284 -321 -332
-47 -39 -61 -65 -34 -65 41 0 142 78 242 187 45 48 98 106 118 128 85 92 250
322 307 429 152 284 279 623 279 744 0 29 -4 52 -8 52 -5 0 -21 -26 -37 -57z"/>
<path d="M20314 3643 c-16 -51 -18 -91 -18 -338 0 -314 8 -387 70 -640 10 -38
20 -74 24 -80 4 -5 10 -29 14 -53 8 -51 104 -257 141 -301 26 -31 65 -42 65
-19 0 6 -9 30 -19 52 -55 117 -81 176 -81 185 0 6 -6 25 -14 43 -37 85 -92
292 -106 396 -6 42 -14 102 -19 132 -5 30 -10 182 -10 336 -1 212 -4 290 -14
314 l-14 31 -19 -58z"/>
<path d="M6731 3564 c0 -11 3 -14 6 -6 3 7 2 16 -1 19 -3 4 -6 -2 -5 -13z"/>
<path d="M6730 2908 c-1 -641 0 -613 -36 -897 -13 -106 -24 -214 -24 -240 0
-60 -27 -225 -45 -276 -7 -22 -16 -67 -19 -100 -3 -33 -17 -93 -31 -132 -28
-80 -31 -108 -13 -119 21 -13 53 40 71 117 9 40 28 122 42 180 14 59 25 116
25 128 0 11 11 78 24 148 13 71 29 207 35 303 6 96 15 211 21 255 7 50 10 278
8 605 -3 516 -3 526 -25 573 -12 26 -24 47 -27 47 -3 0 -6 -267 -6 -592z"/>
<path d="M19131 1694 c0 -11 3 -14 6 -6 3 7 2 16 -1 19 -3 4 -6 -2 -5 -13z"/>
<path d="M19097 1379 c-7 -48 -33 -352 -42 -494 -3 -49 -14 -209 -25 -355 -11
-146 -22 -325 -26 -398 l-7 -132 30 0 c19 0 33 6 37 16 3 9 9 78 12 153 3 75
9 157 14 182 5 25 10 153 10 285 1 131 6 295 12 364 6 69 10 185 9 259 -2 141
-13 198 -24 120z"/>
</g>
</svg>
